<svg xmlns="http://www.w3.org/2000/svg" xmlns:xlink="http://www.w3.org/1999/xlink" id="图层_1" x="0" y="0" version="1.1" viewBox="0 0 32 32" xml:space="preserve" style="enable-background:new 0 0 32 32"><style type="text/css">.st0{fill:#0e76a8}.st1{fill:#fff}</style><path d="M16,0c8.8,0,16,7.2,16,16s-7.2,16-16,16S0,24.8,0,16S7.2,0,16,0z" class="st0"/><path d="M9,22h3V12H9V22z M20.7,11.6c-1.4,0-2.8,0.5-3.6,1.7v-1.4h-3v10h3v-5.4c0-1.2,1.1-2.2,2.4-2.2s1.6,1.2,1.6,2.2	V22H24v-5.7C24,12.4,22.1,11.6,20.7,11.6z M10.5,11c0.8,0,1.5-0.7,1.5-1.5C12,8.7,11.3,8,10.5,8C9.7,8,9,8.7,9,9.5	C9,10.3,9.7,11,10.5,11z" class="st1"/></svg>